<svg xmlns="http://www.w3.org/2000/svg" width="158" height="21"><g fill="#FFF"><path d="M110.887 15.779v-.383c-.414 0-.623-.329-.623-.744 0-.191.033-.573.119-.867l.471-1.526h4.074l.609 1.612c.121.349.205.643.205.883 0 .399-.205.643-.568.643v.383c.59 0 1.162-.068 1.75-.068.59 0 1.164.068 1.752.068v-.383c-.623-.068-.779-.643-1.385-2.185l-3.801-9.748h-.209l-3.693 9.333c-.33.832-.988 2.463-1.682 2.6v.383c.5 0 .988-.068 1.49-.068.502-.002.989.067 1.491.067zm1.978-8.916l1.752 4.562h-3.436l1.684-4.562zm9.106 9.088c.588 0 .918-.086 1.213-.26l1.006-.883c.279.519.766.952 1.318 1.143.33-.416.973-.885 1.58-1.282l-.26-.261c-.123.069-.244.14-.486.14-.398 0-.537-.348-.537-.974V9.257c0-2.498.068-4.44.068-5.794h-.346c-.436.485-1.475.973-2.324 1.197v.346c.451.071.885.313.885 1.284v2.566c-.592-.276-1.18-.434-1.77-.434-2.223 0-3.854 1.388-3.854 3.799.003 2.101 1.391 3.73 3.507 3.73zm.295-6.834c1.369 0 1.855.694 1.855 2.342v2.845c-.451.434-.902.606-1.406.606-1.508 0-2.377-1.699-2.377-3.141.004-1.177.557-2.652 1.928-2.652zm8.812 6.834c.729 0 1.301-.138 1.648-.26l.938-1.369-.176-.208c-.52.379-1.178.555-1.818.555-1.787 0-3.021-1.562-2.898-3.277h5.049c-.018-1.838-1.406-2.967-3.191-2.967-2.359 0-3.537 2.135-3.537 3.763-.005 1.631 1.173 3.763 3.985 3.763zm-.746-6.936c1.129 0 1.611.657 1.611 1.682h-3.123c-.029-.885.575-1.682 1.512-1.682zm7.789 5.17c0 .676-.574 1.073-1.217 1.073-.777 0-1.455-.589-1.629-1.423h-.641l.104 1.613c.521.33 1.404.503 2.014.503 1.492 0 2.756-.676 2.756-2.323 0-2.377-3.451-1.752-3.451-3.417 0-.712.504-1.094 1.197-1.094.938 0 1.424.436 1.613 1.319h.557l.068-1.562c-.729-.225-1.457-.451-2.203-.451-1.422 0-2.74.693-2.74 2.29-.002 2.464 3.572 2.203 3.572 3.472zm2.809-8.137c.053.659.139 1.96.139 2.967v5.618c0 .382-.139.693-.693.779v.348c.502 0 .988-.051 1.49-.051.521 0 1.043.051 1.562.051v-.348c-.537-.086-.676-.397-.676-.987V7.696c0-1.596.051-3.296.068-4.232h-.348c-.451.485-1.818.973-2.428 1.06v.397c.556-.001.852.415.886 1.127zm5.187 9.903c.764 0 1.314-.416 1.906-.849.207.433.73.763 1.389.849l1.301-1.04-.262-.26a1.586 1.586 0 01-.361.068c-.383 0-.521-.228-.521-1.022v-.607c.018-.988.068-1.889.068-2.515 0-1.735-1.318-2.151-2.861-2.151-.814 0-1.51.104-2.236.312v1.647h.418c.434-.643.867-.921 1.717-.921 1.178 0 1.246 1.042 1.246 1.978-.24 0-.537-.05-.816-.05-1.574 0-3.328.71-3.328 2.55-.004 1.284 1.159 2.011 2.34 2.011zm.971-3.971c.312 0 .643.052.832.087l.053 2.549c-.277.176-.625.296-1.164.296-.727 0-1.352-.606-1.352-1.405 0-1.111.832-1.527 1.631-1.527zm7.562 2.205c0 .676-.572 1.073-1.215 1.073-.781 0-1.457-.589-1.631-1.423h-.641l.104 1.613c.521.33 1.406.503 2.012.503 1.49 0 2.758-.676 2.758-2.323 0-2.377-3.451-1.752-3.451-3.417 0-.712.506-1.094 1.197-1.094.936 0 1.424.436 1.611 1.319h.559l.066-1.562c-.729-.225-1.459-.451-2.205-.451-1.42 0-2.738.693-2.738 2.29.002 2.464 3.574 2.203 3.574 3.472zM32.168 13.008c0 1.359-1.06 2.239-2.382 2.239-1.146 0-2.379-.793-2.662-1.956h-.637l.176 1.887c.582.389 1.996.812 3.141.812 2.082 0 4.076-1.307 4.076-3.583 0-4.779-6.016-2.485-6.016-6.208 0-1.235 1.096-2.205 2.293-2.205 1.322 0 2.416.531 2.893 1.87h.671V3.943c-1.06-.547-2.257-.688-3.44-.688-2.238 0-4.127 1.499-4.127 3.846 0 4.602 6.014 2.804 6.014 5.907zm9.664-1.692c-.016-1.87-1.428-3.018-3.245-3.018-2.397 0-3.597 2.168-3.597 3.829 0 1.659 1.199 3.826 4.056 3.826.741 0 1.323-.14 1.675-.263l.955-1.396-.18-.211c-.527.389-1.198.564-1.852.564-1.814 0-3.068-1.589-2.945-3.334l5.133.003zm-3.543-2.418c1.146 0 1.639.671 1.639 1.712h-3.174c-.036-.901.581-1.712 1.535-1.712zm7.601-.599c-1.71 0-3.105 1.006-3.105 2.805 0 1.11.797 2.029 1.729 2.521-.882.548-1.905 1.06-1.905 2.17 0 .459.125.671 1.305.531v.034c-.512.229-1.021.635-1.021 1.252 0 1.464 1.799 1.711 2.893 1.711 1.658 0 4.058-.706 4.058-2.75 0-1.236-.882-1.59-2.664-1.59-1.129 0-1.78.054-2.451.054-.212 0-.407-.054-.407-.301 0-.44.76-.863 1.642-.863 1.94 0 3.476-.688 3.476-2.805 0-.334-.07-.724-.334-1.305h1.198v-.847h-1.94c-.71-.423-1.558-.617-2.474-.617zm.546 7.99c1.409 0 2.134.229 2.134.953 0 1.163-1.606 1.48-2.504 1.48-.725 0-1.974-.264-1.974-1.218 0-.949.81-1.215 2.344-1.215zm-.334-3.016c-1.022 0-1.606-.812-1.606-2.188 0-1.375.584-2.186 1.606-2.186 1.04 0 1.622.811 1.622 2.186-.001 1.377-.583 2.188-1.622 2.188zm5.697-3.599c0 .426.052 1.094.052 1.801v1.64c0 1.606.864 2.84 2.626 2.84.673 0 1.802-.492 2.294-.917.141.248.989.917 1.148.917.141 0 1.479-.635 1.656-.739l-.141-.335c-.158.071-.264.122-.441.122-.354 0-.527-.228-.527-.934V9.675c0-.512.174-.704.527-.827v-.354c-.422.051-.862.051-1.287.051-.53 0-1.04.018-1.57-.051v.354c.514.157.618.403.618.827v4.833c-.37.267-.882.388-1.323.388-1.181 0-1.869-.616-1.869-1.955v-1.396c0-.706-.052-1.443-.052-1.869 0-.494.174-.704.74-.827v-.355c-.495.051-.97.051-1.466.051-.512 0-1.004 0-1.516-.051v.354c.425.016.531.247.531.826zm9.031.899c0 .583.088 1.324.088 2.135v1.869c0 .53-.178.741-.529.83v.354c.477-.019.952-.053 1.43-.053.491 0 .986.034 1.479.053v-.354c-.494-.089-.672-.3-.672-.83v-1.55c0-.777.125-1.412.125-1.8 0-.564.458-1.501 1.2-1.501.617 0 .879.284 1.11.602h.354V8.669c-.336-.229-.775-.37-1.112-.37-.705 0-1.376.9-1.729 1.446h-.035l-.051-1.481h-.354a5.223 5.223 0 01-2.116.986v.372c.581.142.812.353.812.951zm12.785 5.417c1.146 0 2.028-.142 3.439-.407l.547-1.958-.547-.229c-.775 1.233-2.064 1.851-3.492 1.851-1.464 0-5.062-.846-5.062-5.821 0-2.962 1.271-5.432 4.34-5.432 1.516 0 3.245.653 3.792 2.312h.741l-.143-2.347c-1.252-.316-2.134-.705-4.425-.705-3.953 0-6.756 2.682-6.756 6.314 0 3.176 2.31 6.422 7.566 6.422zm6.772-.037c.777 0 1.34-.422 1.939-.865.213.443.74.777 1.41.865l1.326-1.059-.268-.265c-.123.034-.281.07-.369.07-.389 0-.529-.229-.529-1.041v-.618c.016-1.004.068-1.922.068-2.557 0-1.765-1.34-2.188-2.908-2.188-.83 0-1.533.105-2.276.318v1.675h.424c.444-.653.881-.936 1.749-.936 1.197 0 1.268 1.058 1.268 2.012-.246 0-.545-.052-.828-.052-1.604 0-3.387.723-3.387 2.591 0 1.311 1.182 2.05 2.381 2.05zm.99-4.038c.314 0 .654.051.846.088l.051 2.593c-.279.179-.633.3-1.182.3-.74 0-1.375-.616-1.375-1.43 0-1.129.845-1.551 1.66-1.551zm5.871-4.797c.512 0 .971-.371.971-.901 0-.528-.459-.899-.971-.899s-.971.372-.971.899c0 .53.459.901.971.901zm-1.025 2.962c.145.37.25 1.076.25 2.345v2.188c0 .601-.193.688-.615.794v.354c.473-.02.951-.054 1.426-.054.531 0 1.061.054 1.59.054v-.354c-.408-.105-.689-.193-.689-.794v-2.575c0-1.447-.068-2.999-.068-3.74h-.357c-.527.354-1.463.689-2.271.882v.354c.419.07.595.193.734.546zm3.937-.44l2.025 2.752-1.709 2.187c-.23.302-.6.741-1.164.83v.354c.389-.02.758-.054 1.145-.054.461 0 .938.034 1.396.054v-.354c-.23-.036-.371-.123-.371-.406 0-.157.141-.493.246-.651l.953-1.288.953 1.356c.141.213.281.495.281.603 0 .176-.16.369-.354.388v.354c.529-.02 1.041-.054 1.568-.054.529 0 1.041.034 1.568.054v-.354c-.439-.142-.846-.583-1.107-.935l-1.906-2.646 1.498-1.904c.389-.495.76-.917 1.447-1.075v-.356c-.459.018-.936.051-1.395.051-.477 0-.934-.034-1.41-.051v.354c.281.104.494.228.494.562 0 .124-.088.335-.266.582l-.863 1.146-.971-1.323a1.025 1.025 0 01-.211-.565c0-.262.158-.299.369-.403v-.354c-.527.018-1.059.051-1.586.051-.531 0-1.078-.034-1.607-.051v.354c.516.226.643.35.977.792zm9.137 6.313c.775 0 1.34-.422 1.938-.865.213.443.74.777 1.41.865l1.322-1.059-.264-.265c-.123.034-.281.07-.371.07-.389 0-.529-.229-.529-1.041v-.618c.02-1.004.074-1.922.074-2.557 0-1.765-1.342-2.188-2.912-2.188-.83 0-1.535.105-2.277.318v1.675h.424c.443-.653.885-.936 1.746-.936 1.201 0 1.271 1.058 1.271 2.012-.246 0-.549-.052-.828-.052-1.605 0-3.387.723-3.387 2.591 0 1.311 1.182 2.05 2.383 2.05zm.986-4.038c.316 0 .65.051.846.088l.053 2.593c-.281.179-.635.3-1.182.3-.74 0-1.375-.616-1.375-1.43 0-1.129.844-1.551 1.658-1.551zm-74.196 6.009v.209h15.254v-.419H26.087zm24.76-.21v.419h106.001v-.419zm-28.339-1.885c-.187-.271-.271-.589-.476-.858-.143-.505-.6-.869-.646-1.41-.335-.485-.605-.991-.934-1.468-.176-.147-.279-.353-.346-.559-.412-.58-.812-1.13-1.307-1.663-.234.036-.234-.279-.448-.279-.364-.29-.411-.767-.831-1.018-.188-.226-.514-.31-.568-.617.306-.43.67-.849 1.045-1.232.412-.598.99-.988 1.231-1.653.57-1.11 1.652-1.998 1.728-3.314-.055-.167-.233-.148-.363-.177-.262.075-.626 0-.747.326-.55.364-1.158.626-1.737.944-.147.103-.298.205-.486.224-.354.187-.682.44-1.008.672-.187.046-.346.158-.522.244-.14.317-.513.344-.746.579-.569.4-1.224.605-1.803.969-.12.049-.149.208-.279.227-.149.036-.327.019-.438-.084-.43-.608-1.092-.859-1.645-1.25-.44-.33-.942-.527-1.44-.722-.477-.092-.914-.261-1.391-.374-.158.104-.336-.01-.494.058-.046.084-.132.157-.121.26.131.226-.027.534.139.739.177.69.691 1.24.972 1.896l.738 1.01.009.111c-.26.009-.505-.111-.766-.15-.785-.019-1.551-.15-2.344-.169-.44.074-.914-.048-1.354.028-.691.14-1.428.158-2.092.363-.672.243-1.42.42-1.887 1.056v.085c.178.14.316.354.57.336.26.028.465.214.756.177.384.205.849.176 1.233.363.188.104.412.066.605.058.301.186.692.148 1.019.214.803.168 1.653.278 2.493.29.516.14 1.027.027 1.578.056.039.01.094.028.094.083-.194.786-.506 1.523-.756 2.29-.027.168.008.326-.027.486-.253.176-.273.465-.365.708.028.262-.021.552-.141.774a4.335 4.335 0 01-.281 1.122 2.69 2.69 0 01-.186.84c.084.42-.121.766-.129 1.178l.045.131c-.055.299.021.605-.103.878.14.178.009.477.112.672.027.13.177.113.281.142.231-.15.447-.271.632-.506.862-.643 1.187-1.615 1.795-2.42.457-.771.839-1.577 1.276-2.361.16-.484.543-.886.553-1.438.251-.385.158-.916.514-1.262.046-.076 0-.188.046-.264.532.299 1.009.738 1.532 1.059.232.082.316.361.561.391.315.253.635.485.952.73.701.4 1.25 1.017 1.942 1.445.261.132.374.457.654.531.719.619 1.521 1.039 2.25 1.628.709.43 1.438.831 2.205 1.11.148-.028.252.159.381.057.076-.103.16-.243.095-.384-.341-.61-.539-1.271-.829-1.908z"/><path d="M7.261 10.744c-.098-.298-.425-.18-.643-.254-.289.063-.614.028-.867.191-.074.127-.219.144-.326.216l-.189.517c-.072.353 0 .706.271.949.479.436 1.247.316 1.764.046l.405-.598-.08-.562c-.163-.125-.151-.378-.335-.505zm-.116 4.886c-.091-.372-.196-.739-.37-1.086-.227-.062-.199-.326-.416-.404-.154.024-.271-.093-.437-.093-.162.146-.334-.048-.513-.019-.102.117-.256.045-.381.072-.336.207-.771.298-.949.715-.291.106-.209.461-.498.616l-.171.776.056.453c-.073.272.098.517.017.789.027.224.234.314.327.514.235.2.479.399.751.507.107.137.325.118.479.2.271-.012.58.09.806-.082.353.055.379-.379.669-.472.162.037.219-.171.335-.243.162-.325.353-.643.315-1.021.08-.199.109-.435.099-.645l-.062-.035c.059-.197-.119-.325-.057-.542z"/></g></svg>